<?xml version="1.0" encoding="utf-8"?>
<!-- Generator: Adobe Illustrator 24.0.1, SVG Export Plug-In . SVG Version: 6.00 Build 0)  -->
<svg version="1.1" id="Layer_1" xmlns="http://www.w3.org/2000/svg" xmlns:xlink="http://www.w3.org/1999/xlink" x="0px" y="0px"
	 viewBox="0 0 1500 964" style="enable-background:new 0 0 1500 964;" xml:space="preserve">
<style type="text/css">
	.st0{fill:#0C00FF;}
	.st1{fill:#D8D8DA;}
	.st2{fill:#FFFF00;}
	.st3{font-family:'NexaBold';}
	.st4{font-size:76.4042px;}
</style>
<g>
	<g>
		<path class="st0" d="M766.45,331.95c12.51-4.22,26.9-3.73,38.29,3.41c16.01,9.26,24.18,29.43,19.72,47.32
			c6.42,12.3,11.1,25.57,13.1,39.31c8.99,1.22,18.02,2.16,27.02,3.34c5.94,0.79,9.85,6.26,11.48,11.62
			c2.73,9.12,1.49,19.05-1.77,27.87c-2.53,6.49-6.37,12.84-12.29,16.73c-3.58,2.4-8.28,3.35-12.3,1.57
			c-6.71-2.78-13.26-5.92-19.97-8.69c-4.39,8.82-10.27,16.88-17.27,23.82c8.36,11.62,16.93,23.1,25.3,34.73
			c3.38,4.34,3.88,10.65,1.05,15.41c-3.77,6.46-10.9,10.04-17.85,12.04c-10.1,2.69-21.07,2.77-31.07-0.45
			c-7.86-2.5-15.28-8.03-17.99-16.08c-2.31-7.26-4.15-14.64-6.33-21.92c-13.63,2.16-27.7,1.13-40.85-3.03
			c-1.51,7-2.61,14.1-4.34,21.06c-2.53,8.64-11.24,13.67-19.64,15.12c-10.9,1.82-23.19,0.75-32.2-6.22
			c-4.93-3.62-7.6-10.84-4.18-16.35c7.44-12.71,15-25.37,22.47-38.07c-6.53-7.35-11.92-15.7-15.79-24.75
			c-8.07,2.59-16.13,5.28-24.22,7.88c-6.13,2.14-12.33-1.76-16-6.46c-7.06-9.09-9.85-21.35-7.88-32.63
			c1.14-6.29,5.22-13.43,12.3-13.86c9.99-1.06,19.97-2.19,29.98-3.08c1.91-9.97,4.55-19.83,8.54-29.18
			c-6.57-11.02-7.36-25.24-1.76-36.82c6.01-12.96,19.63-21.98,33.95-22.25c6-0.28,11.94,1.14,17.47,3.42
			C736.75,330.34,752.08,328.57,766.45,331.95z M749.22,357.99c-6.7,14.74-1.62,33.53,11.31,43.14c6.2,5.45,14.73,7.74,22.85,7.78
			c18.14-0.26,34.79-15.67,35.46-33.95c0.94-10.31-2.84-20.93-10.29-28.16c-7.39-7.08-17.59-11.35-27.89-10.73
			C767.15,336.63,754.44,345.52,749.22,357.99z M730.71,341.01c5.01,3.93,8.98,8.99,11.98,14.6c3.17-7.27,8.31-13.48,14.51-18.4
			C748.2,336.54,739.13,337.8,730.71,341.01z M676.66,362.43c-4.78,13.92,1.69,30.44,14.36,37.74c9.7,6.25,22.79,5.94,32.6,0.09
			c10.56-6.11,17.1-18.48,16.01-30.64c-0.77-6.42-2.9-12.95-7.46-17.68c-7.21-9.15-19.97-13.6-31.36-11.14
			C689.66,342.97,680.11,351.61,676.66,362.43z M729,404.64c-15.2,10.65-37.83,8.14-50.19-5.77c-9.4,22.17-10.72,48.49-0.35,70.59
			c5.49,12.32,14.49,22.76,25.29,30.74c-3.76-0.14-7.47-0.84-11.01-2.1c-7.52,12.58-14.99,25.19-22.38,37.83
			c-2.42,4.46,2.8,8.06,6.2,9.97c7.95,3.67,17.21,4.01,25.64,1.86c5.45-1.36,10.85-5.18,11.95-11.01
			c1.48-7.81,3.45-15.55,4.39-23.44c0.96-2.75,1.38-5.66,2.03-8.49c1.86,1.32,3.56,2.87,4.84,4.81c0.21,0.59,0.63,1.78,0.83,2.38
			c11.9,4.43,24.98,5.03,37.48,3.32c0.45-1.81,0.94-3.6,1.44-5.4c0.85-1.72,1.74-3.41,2.69-5.08c2.96,9.49,5.39,19.13,8.15,28.67
			c1.47,4.95,2.28,10.55,6.28,14.23c6.15,5.94,15.08,7.72,23.35,7.82c8.71-0.05,18.07-1.78,24.82-7.67
			c2.79-2.37,4.7-6.72,2.31-10.02c-11.69-16.72-24.32-32.79-35.83-49.63c1.81,0.33,3.63,0.72,5.46,1.17
			c2.02,1.02,4.04,2.07,6.04,3.17c6.03-6.15,11.07-13.22,15.03-20.88c-4.82-2.7-8.83-6.51-12.45-10.63
			c-0.37-0.98-0.75-1.94-1.14-2.87c10.47,4.69,21.03,9.17,31.54,13.81c-2.18-11.27,0.85-23.02,6.96-32.58
			c-4.23,9.95-6.09,21.7-1.72,31.92c1.39,3.46,4.87,6.85,8.94,5.63c4.84-1.59,7.99-6.05,10.37-10.31
			c4.22-8.35,6.17-18.29,3.67-27.45c-0.94-2.87-2.5-6.22-5.67-7.08c-16.83-2.88-33.9-4.47-50.63-7.85c5.52-2.16,11.44-2.7,17.3-3.22
			c-1.9-10.2-4.99-20.14-9.38-29.54c-4.43,8.01-10.89,15.08-19.2,19.12c-12.49,6.46-28.17,6.21-40.41-0.73
			c-8.48-4.63-15.07-12.28-18.96-21.08C739.45,395.13,734.9,400.75,729,404.64z M634.34,431.83c-3.5,2.04-4.49,6.42-5.01,10.14
			c-0.76,7.88,1.13,16.05,5.32,22.79c2.02,3.03,4.76,6.21,8.61,6.67c3.6-0.21,5.91-3.49,7.1-6.57c3.08-7.9,1.94-16.66-0.26-24.62
			c4.61,8.31,6.68,18.2,4.67,27.6c4.63-1.49,9.25-3,13.88-4.52c-3.62-11.22-4.97-23.12-4.04-34.86
			C654.52,429.67,644.35,430.29,634.34,431.83z"/>
	</g>
	<g>
		<path d="M775.55,358.34c7.6-2.99,17.25,0.72,19.67,8.78c3.29,8.7-3.96,19-13.24,18.9c-8.29,0.48-15.19-7.14-14.91-15.24
			c3.28,0.54,7.22,0.18,9.08-3C778.35,364.84,776.82,361.28,775.55,358.34z M787.77,374.66c-3.29-0.29-3.59,5.24-0.33,5.28
			C791.12,380.88,791.55,374.31,787.77,374.66z"/>
	</g>
	<g>
		<path d="M701,359.96c4.02-1.09,8.64-1.39,12.21,1.15c5.9,3.6,7.53,12.28,3.43,17.82c-3.75,5.61-12.19,7.08-17.59,3.04
			c-3.7-2.41-5.25-6.8-5.54-11.02c2.96,0.35,6.57,0.08,8.15-2.88C703.5,365.46,701.97,362.52,701,359.96z M710.56,374.65
			c-2.38,0.98-0.66,5.5,1.91,4.18C715.83,378.11,713.42,372.72,710.56,374.65z"/>
	</g>
	<path class="st0" d="M735.07,413.13c17.34-3.77,35.76,5.44,44.69,20.43c7.76,12.93,10.31,29.26,6.09,43.79
		c-3.34,11.26-13.69,19.01-24.82,21.6c-13.06,3.08-27.52,3.11-39.8-2.82c-9.37-4.46-15.83-13.64-18.1-23.61
		c-3.2-14-1.82-29.62,6.2-41.8C715.13,421.74,724.59,415.24,735.07,413.13z M753.85,478.98c-4.55,0.96-7.3,5.07-11.4,6.92
		c0.88-1.83,1.81-3.64,2.79-5.44c-8.44-1.49-17.68-0.96-25.12,3.64c5.81,5.94,14.62,7.38,22.58,7.68
		c9.44,0.09,19.63-1.15,27.37-7.02c1.94-0.98,1.83-3.88-0.2-4.69C765.01,477.45,759.06,477.74,753.85,478.98z"/>
	<g>
		<path class="st1" d="M808.56,346.8c7.44,7.23,11.23,17.85,10.29,28.16c-0.67,18.28-17.32,33.69-35.46,33.95
			c-8.12-0.04-16.66-2.33-22.85-7.78c8.79,2.37,18.18,4.72,27.18,1.83c15.44-4.27,27.01-19.68,26.21-35.79
			C814.01,359.98,810.54,353.54,808.56,346.8z"/>
		<path class="st1" d="M732.19,351.95c4.56,4.73,6.68,11.26,7.46,17.68c1.09,12.16-5.45,24.53-16.01,30.64
			c-9.82,5.84-22.91,6.16-32.6-0.09c7.86,0.64,16.13,2.29,23.71-0.8c12.65-4.51,21.57-17.55,21.11-30.98
			C735.62,362.73,733.67,357.35,732.19,351.95z"/>
		<path class="st1" d="M811.01,461.11c3.62,4.11,7.63,7.93,12.45,10.63c-3.96,7.65-9,14.73-15.03,20.88c-2-1.1-4.02-2.15-6.04-3.17
			c3.54-6.24,8.83-11.35,11.89-17.85C813.46,468.01,812.06,464.61,811.01,461.11z"/>
		<path class="st1" d="M725.41,509.65c13.16,1.94,26.55,2.24,39.75,0.3c-0.5,1.8-1,3.59-1.44,5.4c-12.5,1.72-25.58,1.11-37.48-3.32
			C726.04,511.43,725.62,510.24,725.41,509.65z"/>
		<path class="st1" d="M702.6,540.58c8.31-7.05,10.48-18.28,15.95-27.26c-0.94,7.89-2.91,15.63-4.39,23.44
			c-1.1,5.83-6.5,9.64-11.95,11.01c-8.44,2.15-17.69,1.81-25.64-1.86C685.33,545.33,695.25,546.46,702.6,540.58z"/>
	</g>
	<path class="st2" d="M753.85,478.98c5.22-1.24,11.16-1.53,16.03,1.09c2.03,0.81,2.14,3.71,0.2,4.69
		c-7.74,5.87-17.94,7.12-27.37,7.02c-7.95-0.3-16.77-1.74-22.58-7.68c7.44-4.6,16.68-5.14,25.12-3.64c-0.98,1.8-1.91,3.6-2.79,5.44
		C746.55,484.05,749.3,479.94,753.85,478.98z"/>
</g>
<text transform="matrix(1 0 0 1 600.0145 618.7666)" class="st0 st3 st4">Mblesse</text>
</svg>
